<svg width="22" height="22" viewBox="0 0 22 22" fill="none" xmlns="http://www.w3.org/2000/svg">
<g clip-path="url(#clip0_0_146)">
<path d="M8.72977 10.1505C8.56045 9.98117 8.3308 9.88604 8.09134 9.88604C7.85189 9.88604 7.62224 9.98117 7.45292 10.1505C7.2836 10.3198 7.18848 10.5495 7.18848 10.7889C7.18848 10.9075 7.21183 11.0249 7.2572 11.1344C7.30258 11.244 7.36908 11.3435 7.45292 11.4273L10.1538 14.124C10.2386 14.2103 10.3404 14.2779 10.4527 14.3227C10.5651 14.3675 10.6855 14.3885 10.8064 14.3843C10.9272 14.3801 11.0459 14.3508 11.1548 14.2982C11.2638 14.2457 11.3606 14.1711 11.4392 14.0792L17.7328 6.88687C17.8721 6.70581 17.9373 6.47852 17.9152 6.25115C17.893 6.02379 17.7851 5.81337 17.6135 5.66262C17.4419 5.51186 17.2193 5.43207 16.9909 5.43943C16.7626 5.44679 16.5457 5.54076 16.3841 5.70226L10.7918 12.1753L8.72977 10.1505Z" fill="#EE7A5D"/>
<path d="M18.8794 9.88986C18.6409 9.88986 18.4121 9.98463 18.2434 10.1533C18.0747 10.322 17.9799 10.5508 17.9799 10.7893C17.9799 12.2118 17.5581 13.6024 16.7678 14.7852C15.9775 15.9679 14.8542 16.8898 13.54 17.4342C12.2258 17.9785 10.7797 18.121 9.38449 17.8434C7.98932 17.5659 6.70777 16.8809 5.70191 15.8751C4.69605 14.8692 4.01105 13.5876 3.73353 12.1925C3.45601 10.7973 3.59844 9.35117 4.14281 8.03695C4.68718 6.72273 5.60904 5.59944 6.79181 4.80914C7.97458 4.01884 9.36513 3.59702 10.7876 3.59702C11.3626 3.60067 11.9355 3.66706 12.496 3.79502C12.613 3.83031 12.7359 3.84138 12.8573 3.82756C12.9787 3.81373 13.096 3.7753 13.202 3.7146C13.308 3.65391 13.4006 3.57224 13.474 3.47457C13.5474 3.37691 13.6001 3.2653 13.6289 3.14657C13.6577 3.02784 13.662 2.90449 13.6415 2.78405C13.621 2.66361 13.5762 2.54861 13.5098 2.44608C13.4433 2.34355 13.3567 2.25564 13.2551 2.18773C13.1536 2.11981 13.0392 2.07332 12.9191 2.0511C12.2208 1.88638 11.506 1.8015 10.7885 1.7981C9.01035 1.7981 7.27216 2.32537 5.79369 3.31325C4.31523 4.30112 3.16291 5.70523 2.48245 7.34801C1.80199 8.99079 1.62395 10.7985 1.97085 12.5424C2.31774 14.2864 3.17399 15.8883 4.43132 17.1456C5.68865 18.403 7.29058 19.2592 9.03455 19.6061C10.7785 19.953 12.5862 19.775 14.229 19.0945C15.8717 18.4141 17.2758 17.2617 18.2637 15.7833C19.2516 14.3048 19.7789 12.5666 19.7789 10.7885C19.7789 10.6704 19.7556 10.5535 19.7104 10.4444C19.6652 10.3353 19.5989 10.2362 19.5154 10.1528C19.4318 10.0693 19.3327 10.0031 19.2236 9.95802C19.1144 9.91291 18.9975 9.88975 18.8794 9.88986Z" fill="#0056BD"/>
</g>
<defs>
<clipPath id="clip0_0_146">
<rect width="22" height="22" fill="white"/>
</clipPath>
</defs>
</svg>
