<svg width="25" height="25" viewBox="0 0 25 25" fill="none" xmlns="http://www.w3.org/2000/svg">
<path d="M8.80208 20.9195C8.40034 20.9195 8.00762 21.0346 7.67358 21.2501C7.33954 21.4656 7.07919 21.7719 6.92545 22.1302C6.77171 22.4886 6.73149 22.8829 6.80986 23.2634C6.88824 23.6438 7.0817 23.9932 7.36577 24.2675C7.64985 24.5418 8.01178 24.7286 8.40581 24.8043C8.79983 24.8799 9.20825 24.8411 9.57941 24.6927C9.95057 24.5442 10.2678 24.2929 10.491 23.9703C10.7142 23.6478 10.8333 23.2686 10.8333 22.8807C10.8333 22.3606 10.6193 21.8618 10.2384 21.494C9.85746 21.1262 9.3408 20.9195 8.80208 20.9195ZM23.0208 16.9971H6.77083C6.41169 16.9971 6.06725 16.8594 5.81329 16.6142C5.55934 16.369 5.41667 16.0364 5.41667 15.6897C5.41667 15.3429 5.55934 15.0103 5.81329 14.7651C6.06725 14.5199 6.41169 14.3822 6.77083 14.3822H18.2693C19.1515 14.3794 20.0089 14.1007 20.7132 13.5879C21.4175 13.075 21.9307 12.3556 22.1758 11.5374L24.3228 4.28184C24.3804 4.08725 24.3904 3.88241 24.3521 3.68344C24.3137 3.48447 24.2281 3.29681 24.1019 3.13523C23.9757 2.97364 23.8124 2.84255 23.6248 2.75227C23.4372 2.66198 23.2304 2.61498 23.0208 2.61494H6.41749C6.13716 1.85316 5.62039 1.19334 4.9376 0.725403C4.2548 0.257465 3.43919 0.00415874 2.60188 0H1.35417C0.995019 0 0.650582 0.137751 0.396626 0.382949C0.142671 0.628148 0 0.960708 0 1.30747C0 1.65423 0.142671 1.98679 0.396626 2.23199C0.650582 2.47719 0.995019 2.61494 1.35417 2.61494H2.60188C2.89585 2.61593 3.18157 2.70884 3.41627 2.87975C3.65097 3.05065 3.82202 3.29036 3.90381 3.56299L4.11441 4.27522L4.11473 4.28184L6.33642 11.7896C5.30259 11.897 4.35076 12.383 3.67692 13.1476C3.00308 13.9122 2.65852 14.8971 2.71419 15.8996C2.76986 16.9021 3.22153 17.8458 3.97619 18.5364C4.73085 19.2271 5.73105 19.612 6.77083 19.6121H23.0208C23.38 19.6121 23.7244 19.4743 23.9784 19.2291C24.2323 18.9839 24.375 18.6514 24.375 18.3046C24.375 17.9578 24.2323 17.6253 23.9784 17.3801C23.7244 17.1349 23.38 16.9971 23.0208 16.9971ZM21.2256 5.22988L19.5719 10.8186C19.4902 11.0914 19.3191 11.3313 19.0843 11.5024C18.8495 11.6734 18.5635 11.7663 18.2693 11.7672H9.14657L8.80134 10.6007L7.21286 5.22988H21.2256ZM19.6354 20.9195C19.2337 20.9195 18.841 21.0346 18.5069 21.2501C18.1729 21.4656 17.9125 21.7719 17.7588 22.1302C17.605 22.4886 17.5648 22.8829 17.6432 23.2634C17.7216 23.6438 17.915 23.9932 18.1991 24.2675C18.4832 24.5418 18.8451 24.7286 19.2391 24.8043C19.6332 24.8799 20.0416 24.8411 20.4127 24.6927C20.7839 24.5442 21.1011 24.2929 21.3243 23.9703C21.5475 23.6478 21.6667 23.2686 21.6667 22.8807C21.6667 22.3606 21.4527 21.8618 21.0717 21.494C20.6908 21.1262 20.1741 20.9195 19.6354 20.9195Z" fill="#0056BD"/>
</svg>
