<svg width="23" height="22" viewBox="0 0 23 22" fill="none" xmlns="http://www.w3.org/2000/svg">
<path d="M4.48425 16.9713H0.525674C0.158214 16.9713 0.00599289 16.8158 0.00599289 16.4427C0.00599289 14.784 0.00599289 13.1254 0.00599289 11.4668C0.00599289 11.1026 0.159033 10.9414 0.518308 10.9414C3.17209 10.9414 5.82587 10.9414 8.47965 10.9414C8.83074 10.9414 8.98296 11.1051 8.98296 11.4586C8.98296 13.1271 8.98296 14.7955 8.98296 16.4639C8.98296 16.8167 8.82665 16.9713 8.4731 16.9713H4.48425Z" fill="#0056BD"/>
<path d="M9.84143 13.1087C10.2212 13.1087 10.578 13.0882 10.9299 13.1144C11.2448 13.1631 11.5416 13.2931 11.7909 13.4917C12.272 13.8124 12.6935 14.2145 13.0364 14.68C13.2378 14.941 13.344 15.2629 13.3376 15.5925C13.3229 16.7456 13.3319 17.8987 13.3319 19.0519C13.3428 19.1202 13.3376 19.1901 13.3165 19.256C13.2955 19.322 13.2593 19.382 13.2108 19.4314C13.1623 19.4808 13.1029 19.518 13.0374 19.5403C12.9718 19.5625 12.902 19.569 12.8335 19.5593H12.3866C12.2903 19.0692 12.027 18.6278 11.6416 18.3101C11.2563 17.9925 10.7726 17.8183 10.2732 17.8174C9.77381 17.8164 9.28952 17.9887 8.90291 18.3048C8.5163 18.621 8.2513 19.0614 8.15309 19.5511C8.11871 19.5511 8.08107 19.5593 8.04424 19.5593C7.10881 19.5593 6.17421 19.5593 5.2396 19.5593C5.13812 19.5593 5.10211 19.5298 5.07592 19.4308C4.9845 19.066 4.79804 18.732 4.53553 18.4627C4.27303 18.1935 3.94386 17.9986 3.58153 17.8979C3.54366 17.8888 3.51029 17.8664 3.48742 17.8349H3.64128C5.25297 17.8349 6.86466 17.8349 8.47635 17.8349C8.76183 17.8517 9.04465 17.772 9.27943 17.6088C9.51421 17.4455 9.68735 17.2081 9.77105 16.9347C9.81675 16.7698 9.8388 16.5992 9.83652 16.4281C9.84225 15.383 9.83652 14.3371 9.83652 13.292L9.84143 13.1087ZM12.624 16.3168C12.7999 15.1244 11.6034 13.8943 10.5534 14.1824V16.3168H12.624Z" fill="#EE7A5D"/>
<path d="M2.99967 21.2778C2.74213 21.2796 2.48985 21.2049 2.27484 21.0631C2.05982 20.9213 1.89174 20.7189 1.79191 20.4815C1.69208 20.2441 1.66499 19.9824 1.71408 19.7296C1.76317 19.4767 1.88622 19.2442 2.06765 19.0614C2.24907 18.8786 2.48069 18.7538 2.73313 18.7028C2.98558 18.6518 3.24749 18.6769 3.48565 18.7749C3.72381 18.8729 3.9275 19.0395 4.07089 19.2534C4.21429 19.4673 4.29093 19.719 4.29109 19.9766C4.29197 20.32 4.15672 20.6497 3.91498 20.8936C3.67324 21.1375 3.3447 21.2757 3.0013 21.2778" fill="#0056BD"/>
<path d="M11.5535 19.9757C11.5517 20.2302 11.4747 20.4784 11.3321 20.6891C11.1895 20.8998 10.9877 21.0636 10.7522 21.1599C10.5166 21.2561 10.2579 21.2805 10.0085 21.23C9.75915 21.1794 9.53031 21.0562 9.35084 20.8758C9.17138 20.6955 9.04932 20.466 9.00003 20.2164C8.95074 19.9668 8.97644 19.7081 9.07388 19.4731C9.17132 19.238 9.33615 19.0371 9.5476 18.8955C9.75905 18.754 10.0077 18.6782 10.2621 18.6777C10.4324 18.6773 10.601 18.7106 10.7583 18.7758C10.9156 18.8409 11.0585 18.9366 11.1786 19.0573C11.2987 19.178 11.3936 19.3213 11.458 19.479C11.5224 19.6366 11.5548 19.8054 11.5535 19.9757Z" fill="#0056BD"/>
<path d="M2.51274 17.8382C2.07917 17.9706 1.69005 18.2191 1.38745 18.5567C1.16208 18.8099 1.0022 19.1145 0.921785 19.4438C0.897233 19.5445 0.854677 19.5674 0.763835 19.5617C0.647623 19.5551 0.530593 19.5617 0.413562 19.5617C0.308758 19.5618 0.207891 19.5218 0.131756 19.4498C0.0556216 19.3777 0.0100241 19.2792 0.00436477 19.1746C-0.00545596 18.7097 0.00436477 18.2441 0.00436477 17.8193C0.428293 17.8267 0.844038 17.8373 1.25978 17.8414C1.67553 17.8455 2.09454 17.8414 2.51193 17.8414" fill="#EE7A5D"/>
<path d="M15.5669 19.6337C15.3341 19.6317 15.1093 19.548 14.9317 19.3972C14.7542 19.2465 14.6353 19.0382 14.5956 18.8086C14.556 18.5791 14.5982 18.343 14.7148 18.1414C14.8314 17.9398 15.0151 17.7856 15.2339 17.7056C16.5338 17.2249 17.6893 16.42 18.5906 15.3672C19.4919 14.3143 20.109 13.0485 20.3835 11.6901C20.6579 10.3316 20.5806 8.92549 20.1587 7.60533C19.7368 6.28517 18.9844 5.09478 17.973 4.14721C17.2043 3.4228 16.2988 2.85908 15.3095 2.48907C14.3202 2.11905 13.2669 1.9502 12.2115 1.99238C10.5747 2.06332 8.99809 2.62998 7.6906 3.61724C6.38312 4.6045 5.4065 5.96577 4.89017 7.52064C4.85009 7.64406 4.78594 7.75831 4.70144 7.85679C4.61694 7.95527 4.51376 8.03603 4.39786 8.0944C4.28196 8.15277 4.15564 8.18758 4.02621 8.19684C3.89677 8.2061 3.76678 8.18962 3.64376 8.14835C3.39505 8.0637 3.18994 7.88407 3.07325 7.64869C2.95656 7.4133 2.93776 7.14131 3.02096 6.89211C3.66344 4.95716 4.87833 3.26291 6.50486 2.03359C8.13138 0.804274 10.0929 0.0978368 12.1297 0.00777514C13.4446 -0.04436 14.7567 0.166101 15.9893 0.62686C17.2219 1.08762 18.3504 1.78943 19.3086 2.69129C20.5681 3.87145 21.5049 5.35401 22.03 6.99813C22.5552 8.64226 22.6512 10.3933 22.3091 12.0851C21.967 13.7768 21.1981 15.3529 20.0753 16.6638C18.9526 17.9747 17.5133 18.9767 15.8943 19.5748C15.7894 19.613 15.6786 19.633 15.5669 19.6337Z" fill="#0056BD"/>
<path d="M18.3929 13.0112L12.5004 11.516C12.3441 11.5869 12.1745 11.6234 12.0028 11.6232C11.676 11.6217 11.3632 11.4905 11.133 11.2585C10.9028 11.0265 10.7742 10.7126 10.7753 10.3858C10.7753 10.1822 10.8253 9.98183 10.9207 9.80207C11.0162 9.6223 11.1542 9.46867 11.3228 9.3546L11.9333 5.13823C11.9333 5.12455 11.9387 5.11144 11.9484 5.10177C11.9581 5.0921 11.9712 5.08667 11.9848 5.08667C11.9985 5.08667 12.0116 5.0921 12.0213 5.10177C12.031 5.11144 12.0364 5.12455 12.0364 5.13823L12.6428 9.33087C12.823 9.44184 12.9717 9.59717 13.0747 9.782C13.1777 9.96683 13.2316 10.175 13.2313 10.3866V10.3956L18.4444 12.8704C18.4609 12.8788 18.4738 12.8928 18.4806 12.9099C18.4875 12.927 18.4879 12.9461 18.4818 12.9635C18.4757 12.9809 18.4635 12.9955 18.4474 13.0046C18.4314 13.0137 18.4126 13.0166 18.3945 13.0128" fill="#EE7A5D"/>
</svg>
