<svg width="49" height="59" viewBox="0 0 49 59" fill="none" xmlns="http://www.w3.org/2000/svg">
<path d="M38.995 50.8717C37.833 53.2176 36.7444 55.4228 35.5457 57.6397C35.3006 58.1604 34.8656 58.5775 34.3226 58.8126C33.4174 59.0824 32.8303 58.5194 32.4633 57.71C30.861 54.1912 29.222 50.6723 27.5707 47.0713L27.3872 46.6959C25.8827 46.6959 24.5005 46.6959 23.1306 46.6959C22.8706 46.6871 22.6141 46.6355 22.3722 46.5434C21.7851 46.3088 21.516 46.5434 21.2836 47.0595C19.6813 50.5784 18.0667 54.0973 16.391 57.6866C16.1458 58.2074 15.7109 58.6245 15.1678 58.8595C14.3116 59.1411 13.7122 58.625 13.333 57.8625C12.3545 55.8802 11.3637 53.9214 10.373 51.9977C10.214 51.6927 10.055 51.3878 9.85925 51.0359C7.41292 51.7514 4.96659 52.4552 2.52026 53.1824C2.18713 53.3445 1.80735 53.396 1.44042 53.3289C1.07349 53.2618 0.740131 53.0798 0.49257 52.8116C0.245009 52.5434 0.0972299 52.2039 0.0723819 51.8465C0.0475339 51.4891 0.147021 51.1339 0.355258 50.8365C2.11662 47.0126 3.84128 43.1653 5.61487 39.3415C5.71781 39.1076 5.77085 38.8563 5.77085 38.6025C5.77085 38.3486 5.71781 38.0974 5.61487 37.8635C5.18545 36.6951 4.96221 35.4662 4.95436 34.2273C5.05894 33.2809 4.91059 32.3246 4.52327 31.4483C4.13594 30.5721 3.5224 29.8048 2.74043 29.2188C1.8751 28.5112 1.18148 27.6308 0.708134 26.6392C0.23479 25.6477 -0.00684342 24.5689 0.000147476 23.4784C0.00713838 22.3879 0.262584 21.312 0.748605 20.3261C1.23463 19.3401 1.93948 18.468 2.81382 17.7707C3.56852 17.2037 4.15923 16.4607 4.52965 15.6127C4.90007 14.7647 5.03786 13.8399 4.9299 12.9263C4.80178 11.8182 4.93515 10.6966 5.32014 9.64449C5.70513 8.59243 6.33188 7.63684 7.15402 6.84845C7.97616 6.06005 8.97264 5.45902 10.0697 5.08984C11.1668 4.72065 12.3365 4.59275 13.4921 4.71561C14.4453 4.81898 15.4102 4.6843 16.2932 4.32464C17.1762 3.96499 17.9472 3.39257 18.5315 2.66292C19.264 1.82881 20.1778 1.15829 21.2089 0.698312C22.2399 0.238332 23.3634 0 24.5005 0C25.6377 0 26.7612 0.238332 27.7922 0.698312C28.8233 1.15829 29.7371 1.82881 30.4696 2.66292C31.0709 3.36474 31.8462 3.91071 32.7244 4.25088C33.6027 4.59104 34.5559 4.71453 35.4968 4.61004C36.6301 4.50831 37.7728 4.6463 38.8444 5.01427C39.916 5.38224 40.8904 5.97123 41.6987 6.73968C42.507 7.50813 43.1297 8.43733 43.5227 9.46171C43.9157 10.4861 44.0696 11.5807 43.9733 12.6683C43.8633 13.6271 44.0126 14.597 44.4068 15.4845C44.8009 16.372 45.4268 17.1472 46.224 17.7355C47.0671 18.4314 47.7437 19.2937 48.2075 20.2633C48.6713 21.233 48.9114 22.2872 48.9114 23.354C48.9114 24.4208 48.6713 25.475 48.2075 26.4446C47.7437 27.4143 47.0671 28.2765 46.224 28.9725C45.4147 29.5764 44.7798 30.3686 44.3795 31.2739C43.9792 32.1792 43.8268 33.1676 43.9366 34.1452C43.8558 35.3759 43.6385 36.5949 43.2884 37.7814C43.1626 38.203 43.1626 38.65 43.2884 39.0717C45.013 42.9424 46.7866 46.8015 48.5602 50.6605C48.8905 51.376 49.1229 52.0798 48.4868 52.7484C48.2036 53.0088 47.8421 53.1771 47.4536 53.2298C47.0651 53.2824 46.6692 53.2166 46.3218 53.0417C43.8877 52.2792 41.4414 51.5989 38.995 50.8717ZM18.9229 44.6667C18.556 44.2679 18.2624 43.9747 17.9933 43.6697C17.5338 43.1153 16.9377 42.6792 16.2587 42.4008C15.5797 42.1223 14.8391 42.0101 14.1036 42.0745C12.0288 42.3521 9.92025 41.8842 8.18352 40.7607L4.25715 49.3468L9.45561 47.8337C11.2292 47.3176 11.6084 47.4818 12.4279 49.1122C13.2474 50.7426 13.9324 52.1033 14.7641 53.8041L18.9229 44.6667ZM34.1024 53.7454L36.5487 48.9128C37.2459 47.5287 37.7719 47.341 39.2641 47.7399L43.7409 49.0301C43.9733 49.1005 44.2057 49.124 44.5727 49.2061L40.683 40.7138C39.0389 41.8718 36.9955 42.3837 34.9708 42.1448C34.2419 42.0541 33.5008 42.1337 32.8108 42.3767C32.1208 42.6197 31.5022 43.019 31.0078 43.5407C29.8825 44.7136 29.8825 44.7136 30.543 46.1446L31.7661 48.7134L34.1024 53.7454Z" fill="#0056BD"/>
<path d="M38.5059 23.3776C38.4962 26.0501 37.6603 28.6599 36.1039 30.8768C34.5476 33.0938 32.3406 34.8183 29.7622 35.8325C27.1837 36.8466 24.3496 37.1048 21.6181 36.5743C18.8867 36.0438 16.3806 34.7485 14.4168 32.8522C12.453 30.9559 11.1197 28.5438 10.5855 25.9208C10.0513 23.2978 10.3402 20.5819 11.4156 18.1163C12.491 15.6508 14.3047 13.5465 16.6273 12.0694C18.9499 10.5924 21.677 9.80893 24.4639 9.8182C28.1991 9.83681 31.7742 11.2744 34.4062 13.8159C37.0382 16.3574 38.5124 19.7958 38.5059 23.3776ZM35.3256 23.3776C35.3256 21.2897 34.68 19.2487 33.4704 17.5127C32.2607 15.7766 30.5415 14.4236 28.5299 13.6246C26.5184 12.8256 24.3049 12.6165 22.1695 13.0238C20.0341 13.4312 18.0725 14.4366 16.533 15.913C14.9934 17.3893 13.945 19.2703 13.5202 21.3181C13.0954 23.3659 13.3134 25.4885 14.1466 27.4175C14.9798 29.3465 16.3908 30.9952 18.2012 32.1552C20.0115 33.3152 22.1399 33.9343 24.3172 33.9343C27.2368 33.9343 30.0368 32.8221 32.1013 30.8423C34.1658 28.8626 35.3256 26.1774 35.3256 23.3776Z" fill="#EE7A5D"/>
<path d="M22.727 24.9493C24.5863 23.1195 26.3965 21.3249 28.2191 19.542C28.4965 19.2413 28.8444 19.0081 29.2343 18.8617C29.5511 18.7678 29.8921 18.7833 30.1982 18.9054C30.5043 19.0276 30.7562 19.2486 30.91 19.5303C31.1241 19.7936 31.2267 20.1247 31.1972 20.4575C31.1677 20.7902 31.0084 21.1 30.751 21.3249C28.427 23.5535 26.103 25.7939 23.7423 27.9873C23.6062 28.1254 23.4422 28.2354 23.2603 28.3106C23.0784 28.3858 22.8823 28.4246 22.6842 28.4246C22.4861 28.4246 22.2901 28.3858 22.1082 28.3106C21.9263 28.2354 21.7622 28.1254 21.6262 27.9873C20.452 27.0646 19.3103 26.1028 18.2013 25.1018C18.0389 24.9808 17.9056 24.8275 17.8105 24.6525C17.7154 24.4776 17.6607 24.285 17.6503 24.0879C17.6398 23.8909 17.6738 23.694 17.7499 23.5107C17.826 23.3274 17.9424 23.1619 18.0912 23.0257C18.2196 22.8727 18.3794 22.7466 18.5607 22.6554C18.7421 22.5642 18.9411 22.5097 19.1453 22.4954C19.3495 22.4811 19.5546 22.5073 19.7479 22.5723C19.9411 22.6373 20.1183 22.7397 20.2685 22.8732C21.0268 23.4831 21.7607 24.14 22.727 24.9493Z" fill="#EE7A5D"/>
</svg>
