<svg width="116" height="20" viewBox="0 0 116 20" fill="none" xmlns="http://www.w3.org/2000/svg">
<rect width="20" height="20" rx="3" fill="#00B67A"/>
<path d="M10 1.95142L11.807 7.51285H17.6547L12.9238 10.95L14.7308 16.5114L10 13.0743L5.26916 16.5114L7.07618 10.95L2.34534 7.51285H8.19298L10 1.95142Z" fill="white"/>
<rect x="23.9963" width="20" height="20" rx="3" fill="#00B67A"/>
<path d="M33.9963 1.95142L35.8034 7.51285H41.651L36.9202 10.95L38.7272 16.5114L33.9963 13.0743L29.2655 16.5114L31.0725 10.95L26.3417 7.51285H32.1893L33.9963 1.95142Z" fill="white"/>
<rect x="47.9923" width="20" height="20" rx="3" fill="#00B67A"/>
<path d="M57.9923 1.95142L59.7993 7.51285H65.647L60.9161 10.95L62.7231 16.5114L57.9923 13.0743L53.2615 16.5114L55.0685 10.95L50.3377 7.51285H56.1853L57.9923 1.95142Z" fill="white"/>
<rect x="71.9883" width="20" height="20" rx="3" fill="#00B67A"/>
<path d="M81.9883 1.95142L83.7953 7.51285H89.6429L84.9121 10.95L86.7191 16.5114L81.9883 13.0743L77.2574 16.5114L79.0645 10.95L74.3336 7.51285H80.1813L81.9883 1.95142Z" fill="white"/>
<rect x="95.9843" width="20" height="20" rx="3" fill="#00B67A"/>
<path d="M105.984 1.95142L107.791 7.51285H113.639L108.908 10.95L110.715 16.5114L105.984 13.0743L101.253 16.5114L103.06 10.95L98.3296 7.51285H104.177L105.984 1.95142Z" fill="white"/>
</svg>
