<svg width="81" height="41" viewBox="0 0 81 41" fill="none" xmlns="http://www.w3.org/2000/svg">
<path d="M21.3328 13.6504C18.7849 11.3667 15.9203 11.1664 15.9203 11.1664C13.6757 10.4612 9.73975 10.9829 9.73975 10.9829L9.57191 11.0052C7.7189 11.2546 6.00465 11.6005 4.51531 12.2539C4.44034 12.2862 4.36649 12.3197 4.29152 12.3543C4.17459 12.4101 4.05934 12.4659 3.94576 12.5245C2.72274 13.1561 1.67483 14.0271 0.852949 15.2763C-1.08398 18.2206 0.883721 20.5211 0.883721 20.5211C0.883721 20.5211 3.46685 24.6762 10.9393 24.5227C18.4117 24.3693 20.6894 21.0746 21.1778 20.6729C21.6914 20.2538 24.0692 16.1038 21.3328 13.6504ZM17.102 16.3487V16.3548C17.107 17.0567 14.8277 17.8429 12.0862 17.9952C8.76513 18.1788 7.17061 17.4551 7.16278 17.0746C7.16245 17.0579 7.16434 17.0412 7.16838 17.0249C7.28027 16.5345 9.19817 15.7121 12.1108 15.6803C14.8624 15.6507 17.0913 15.9113 17.102 16.3487Z" fill="url(#paint0_linear_0_178)"/>
<path d="M17.102 16.3547V16.3486C17.0913 15.9111 14.864 15.6506 12.1097 15.679C9.19705 15.7108 7.28138 16.5333 7.16725 17.0237C7.12081 16.8943 7.14487 16.6794 7.32055 16.3073C7.65232 15.6048 9.01186 14.7735 11.0417 14.5592C12.3038 14.4259 14.7012 14.2217 16.4227 15.173C17.3291 15.674 17.2457 16.1734 17.102 16.3547Z" fill="url(#paint1_radial_0_178)"/>
<path d="M1.80632 5.67942C1.80632 5.67942 1.83709 3.57872 2.02172 3.07265L2.20579 2.56714C2.20579 2.56714 2.2981 1.7927 3.25146 1.31733C4.20482 0.841949 5.95767 -0.185246 7.91809 0.0290085C9.87852 0.243263 10.156 0.520009 11.0008 1.5087C11.8457 2.4974 11.9615 4.32247 11.9615 4.32247C12.0192 5.40159 11.8278 6.47953 11.402 7.47324C10.6948 9.09131 10.4179 9.71957 9.61836 10.9616C9.61836 10.9616 6.66653 13.8071 6.88193 16.4742C6.88193 16.4742 7.74298 16.9646 1.5926 19.2338C1.5926 19.2338 0.82387 19.4793 0.946956 18.3751C1.07004 17.2709 3.03774 13.5298 3.89878 12.5796C4.75982 11.6294 5.20741 10.9956 6.08076 10.3713C6.89033 9.79377 8.69409 7.15297 8.69409 5.74023C8.69409 4.32749 9.24798 2.76578 6.63408 3.06205C6.63408 3.06205 5.82451 3.47103 5.50673 4.84081C5.50673 4.84081 5.09663 5.42331 4.61492 5.2085C4.61492 5.2085 4.05096 5.67886 4.00508 6.20054C4.00508 6.20054 3.60002 5.89367 3.49763 5.22915C3.49763 5.22915 3.35384 5.09635 2.96445 5.48469C2.96668 5.48302 2.40105 5.9026 1.80632 5.67942Z" fill="url(#paint2_linear_0_178)"/>
<path d="M5.04514 11.4731C5.04514 11.4731 0.952536 15.9864 1.08905 18.24L1.84715 18.0168C1.84715 18.0168 1.69105 17.1621 2.76973 15.1545C3.45907 13.8862 4.21872 12.6572 5.04514 11.4731Z" fill="url(#paint3_linear_0_178)"/>
<path d="M3.69735 8.09988C3.69735 8.09988 3.68224 6.39812 4.00507 6.19893C4.00507 6.19893 3.66658 6.04549 3.57426 5.40161C3.57426 5.40161 3.48195 4.98761 3.11325 5.38599C2.74455 5.78437 1.83708 5.81561 1.8063 5.67724L1.43705 7.48669C1.82037 7.48668 2.20063 7.55489 2.55993 7.68811C3.15913 7.90069 3.69735 8.09988 3.69735 8.09988Z" fill="white"/>
<path d="M1.43712 7.48654C1.43712 7.48654 1.01471 8.88924 1.13779 9.55098C1.26088 10.2127 1.26815 11.4982 2.90576 12.2805C2.90576 12.2805 3.7668 12.5946 4.18921 12.4875C4.61161 12.3804 4.98087 12.0099 4.98087 12.0099C4.58802 11.8049 4.27439 11.4759 4.08906 11.0742C3.80428 10.4231 3.69742 9.93987 3.69742 8.09973C3.69742 8.09973 2.02178 7.40899 1.43712 7.48654Z" fill="black"/>
<path d="M5.59287 3.99333C5.34949 4.66288 4.67252 5.03057 4.08227 4.81632C3.49202 4.60206 3.20836 3.88676 3.45173 3.21778C3.69511 2.54879 4.56734 2.19728 5.15927 2.41153C5.7512 2.62579 5.83624 3.3249 5.59287 3.99333Z" fill="white"/>
<path d="M4.63508 4.26676C5.01731 4.26676 5.32716 3.97149 5.32716 3.60726C5.32716 3.24302 5.01731 2.94775 4.63508 2.94775C4.25286 2.94775 3.943 3.24302 3.943 3.60726C3.943 3.97149 4.25286 4.26676 4.63508 4.26676Z" fill="black"/>
<path d="M4.59924 3.45883C4.69256 3.45883 4.76821 3.38339 4.76821 3.29033C4.76821 3.19727 4.69256 3.12183 4.59924 3.12183C4.50593 3.12183 4.43028 3.19727 4.43028 3.29033C4.43028 3.38339 4.50593 3.45883 4.59924 3.45883Z" fill="white"/>
<path d="M9.59655 11.0029C9.27222 11.4221 8.92304 11.8216 8.55088 12.1992C7.98693 12.761 7.22883 14.4477 6.99273 15.1943C6.85226 15.6651 6.82864 16.163 6.92391 16.645C6.2268 17.6236 1.41414 19.264 1.41414 19.264C1.41414 19.264 0.737726 19.2947 0.991171 18.1141C0.991171 18.1141 1.69108 16.0441 2.13699 15.4615C2.13699 15.4615 3.46688 12.9876 3.8462 12.722" stroke="#032482" stroke-width="0.2" stroke-miterlimit="10"/>
<path d="M5.09667 19.9368C5.09667 19.9368 3.92791 21.1023 4.23563 22.3918C4.23563 22.3901 4.11254 21.7769 5.09667 19.9368Z" fill="url(#paint4_linear_0_178)"/>
<path d="M7.78715 20.719C7.78715 20.719 7.33957 22.2065 7.58742 23.1874C7.58742 23.1874 7.61819 21.5621 7.78715 20.719Z" fill="url(#paint5_linear_0_178)"/>
<path d="M11.3499 21.6235C11.3499 21.6235 11.4104 22.7021 11.3897 23.2182C11.3897 23.2182 11.7181 22.6256 11.3499 21.6235Z" fill="url(#paint6_linear_0_178)"/>
<path d="M14.9675 20.949C14.9675 20.949 15.4901 21.6235 15.367 22.8198C15.367 22.8198 16.0126 21.8077 14.9675 20.949Z" fill="url(#paint7_linear_0_178)"/>
<path d="M17.9194 21.7484C17.9194 21.7484 18.1656 20.8897 17.0276 20.3379C17.0276 20.3357 18.4419 20.6732 17.9194 21.7484Z" fill="url(#paint8_linear_0_178)"/>
<path d="M19.0176 20.9182C19.0176 20.9182 19.1994 20.2838 18.3585 19.876C18.3585 19.876 19.4036 20.1248 19.0176 20.9182Z" fill="url(#paint9_linear_0_178)"/>
<path d="M19.294 20.8262C19.294 20.8262 19.4758 20.1918 18.6349 19.7839C18.6349 19.7839 19.6806 20.0328 19.294 20.8262Z" fill="url(#paint10_linear_0_178)"/>
<path d="M7.05927 0.331494C7.05927 0.331494 10.1498 0.0525169 10.7518 1.89377C10.7496 1.89544 10.2399 1.02113 7.05927 0.331494Z" fill="url(#paint11_linear_0_178)"/>
<path d="M19.0574 19.2779C19.0574 19.2779 22.1474 17.6219 22.1938 15.644C22.2403 13.666 18.3653 12.3777 18.3653 12.3777C18.3653 12.3777 24.4077 15.1379 19.0574 19.2779Z" fill="url(#paint12_linear_0_178)"/>
<g opacity="0.71">
<path opacity="0.5" d="M8.13068 12.771C8.13068 12.771 8.05739 12.9328 7.93598 13.1878C7.8101 13.4573 7.64729 13.8043 7.47217 14.1793C7.42853 14.2764 7.37986 14.3684 7.33902 14.4583C7.29817 14.5481 7.25677 14.6368 7.21593 14.7205C7.17509 14.8042 7.14264 14.8845 7.10739 14.9593C7.07214 15.0341 7.03746 15.1032 7.01228 15.1685C6.95633 15.298 6.90933 15.4029 6.87577 15.4754L6.82821 15.587C6.82821 15.587 6.82821 15.5424 6.83716 15.4626C6.84611 15.3828 6.86569 15.269 6.89311 15.1278C6.9043 15.0564 6.92556 14.9811 6.94626 14.8996C6.96696 14.8181 6.98934 14.7322 7.01843 14.6401C7.04753 14.5481 7.08221 14.4566 7.11802 14.3612C7.15383 14.2658 7.1997 14.1681 7.24446 14.0682C7.40519 13.7321 7.60157 13.4141 7.83024 13.1197C7.92434 12.9984 8.02462 12.882 8.13068 12.771Z" fill="white"/>
<path d="M7.0329 14.9123L7.04521 14.8454C7.05416 14.803 7.06423 14.7399 7.08605 14.6657C7.10787 14.5915 7.13417 14.5022 7.16718 14.4052C7.20402 14.2999 7.2466 14.1967 7.29474 14.0961C7.34129 13.9949 7.39378 13.8965 7.45195 13.8015C7.47769 13.7574 7.50287 13.7155 7.52804 13.677L7.60022 13.5727C7.64553 13.5091 7.68302 13.4611 7.71211 13.4243C7.74121 13.3874 7.75519 13.3718 7.75519 13.3718L7.73058 13.4349C7.71547 13.4756 7.69253 13.5342 7.66344 13.6056C7.63435 13.677 7.5963 13.7635 7.5577 13.855C7.51909 13.9465 7.4693 14.0481 7.42174 14.1546C7.37419 14.2612 7.31992 14.3588 7.27684 14.4504C7.23376 14.5419 7.19012 14.6228 7.15263 14.6908C7.11515 14.7589 7.08885 14.8147 7.06759 14.8532L7.0329 14.9123Z" fill="white"/>
</g>
<g opacity="0.5">
<path opacity="0.5" d="M5.36009 21.2044L5.48877 21.2474L5.64431 21.2993L5.85915 21.364L6.12826 21.4449C6.22673 21.4728 6.33471 21.5007 6.45052 21.5308C6.68047 21.5967 6.9479 21.6508 7.24051 21.7194C7.92978 21.8594 8.62713 21.9565 9.32849 22.0101C10.1852 22.0754 11.0457 22.0734 11.9021 22.004C12.7589 21.9306 13.61 21.8014 14.45 21.6173L15.0128 21.4784L15.2831 21.412L15.5415 21.3355C15.88 21.234 16.1984 21.1475 16.4803 21.0426L16.8865 20.9026L17.074 20.839L17.2468 20.7709L17.8186 20.5477L18.0279 20.4663L18.1778 20.3993L18.302 20.3435L18.1845 20.4093L18.0396 20.4875L17.8371 20.584L17.2776 20.8473C17.2217 20.8724 17.1657 20.8998 17.1098 20.926L16.9263 21.0008L16.5257 21.1637C16.2459 21.2842 15.9315 21.3869 15.5941 21.5029L15.3368 21.5905L15.0665 21.6681L14.502 21.8271C13.6556 22.0393 12.7935 22.1835 11.9239 22.2584C11.0533 22.3288 10.178 22.3176 9.30947 22.2249C8.60165 22.1499 7.90038 22.0228 7.21142 21.8444C6.91993 21.7602 6.65473 21.6899 6.42814 21.6101C6.31625 21.5716 6.20771 21.5375 6.11036 21.5029L5.84684 21.4036L5.63704 21.3238L5.4843 21.2574L5.36009 21.2044Z" fill="white"/>
<path d="M15.4817 21.4456L15.4123 21.4712C15.3665 21.488 15.3004 21.5131 15.2109 21.5382L14.4618 21.7614C14.3018 21.8015 14.1261 21.8423 13.9364 21.8863L13.6432 21.9544C13.542 21.9762 13.4362 21.9924 13.3288 22.0102L12.9982 22.066C12.8863 22.0855 12.7705 22.1062 12.6518 22.1179L12.291 22.1592L12.1064 22.1798C12.0448 22.1871 11.9821 22.1943 11.9195 22.1971C11.6672 22.2111 11.421 22.2278 11.1832 22.2356H10.4973L9.87738 22.2027C9.78003 22.1988 9.68715 22.1876 9.59764 22.1782L9.34028 22.1503L9.10586 22.1246C9.03256 22.1145 8.96319 22.1028 8.89829 22.0928L8.56651 22.037L8.44567 22.0175L8.35783 21.999L8.2851 21.9834L8.35839 21.9929L8.44734 22.0046L8.56931 22.0158L8.905 22.047L9.11369 22.0666L9.34475 22.0833L9.60267 22.0984C9.69219 22.1034 9.78506 22.1106 9.88241 22.1101L10.4978 22.1207L11.1787 22.1051C11.4143 22.0933 11.6582 22.0749 11.9061 22.061C12.7591 21.9881 13.607 21.8651 14.4455 21.6927L15.2048 21.5164C15.2954 21.4974 15.3637 21.4774 15.4107 21.4645L15.4817 21.4456Z" fill="white"/>
</g>
<path d="M3.49756 9.89355C3.49756 9.89355 3.71296 11.7186 4.65065 11.9792C4.65065 11.9792 3.1904 12.2548 3.49756 9.89355Z" fill="url(#paint13_linear_0_178)"/>
<path d="M3.9513 3.52279C3.97092 3.38116 4.03605 3.24969 4.13692 3.14809C4.23779 3.04649 4.36896 2.98023 4.51078 2.95926C5.05683 2.86831 5.27167 3.34648 5.27167 3.34648L3.9513 3.52279Z" fill="url(#paint14_linear_0_178)"/>
<path d="M40.2802 17.651C40.0127 16.5959 40.6298 15.2038 41.7035 15.0118C42.4633 14.8763 43.4161 15.0888 44.4226 16.2505C46.7724 18.9583 48.6321 15.6128 49.5099 15.4476C50.4303 15.2741 50.9942 15.5899 51.1453 16.6081C51.2177 17.1391 51.1638 17.6796 50.9881 18.186C50.5517 19.49 49.275 22.253 45.5538 22.253C42.3379 22.2507 40.9432 20.2678 40.2802 17.651Z" fill="url(#paint15_linear_0_178)"/>
<path d="M46.2588 17.8684C45.1045 17.8693 43.975 17.5343 43.0088 16.9043C43.796 17.8701 44.9922 18.3081 46.213 18.3081C47.4337 18.3081 48.6305 17.8701 49.5094 16.9043C48.5431 17.5344 47.4134 17.8695 46.2588 17.8684Z" fill="#002BB5"/>
<path d="M53.6462 16.9407C53.6245 16.5378 53.7336 16.1388 53.9574 15.8027C54.1811 15.4666 54.5075 15.2113 54.8882 15.0749C55.6648 14.8048 56.7519 14.8679 57.9503 16.2505C60.3001 18.9583 62.1464 15.4359 63.0371 15.4476C64.0123 15.4593 64.5717 15.7506 64.4867 17.5343C64.4867 17.5343 63.7879 21.9612 59.3954 22.253C56.4167 22.451 53.795 20.14 53.6462 16.9407Z" fill="url(#paint16_linear_0_178)"/>
<path d="M30.1781 4.04297H22.9675V24.2967H26.353V18.9058C26.353 18.6911 26.3954 18.4785 26.4777 18.2802C26.5601 18.0818 26.6809 17.9016 26.8331 17.7498C26.9853 17.598 27.166 17.4776 27.3649 17.3954C27.5638 17.3132 27.777 17.271 27.9922 17.271H30.1787C34.3535 17.271 37.7664 14.3322 37.7664 10.7267C37.7664 7.04476 34.3535 4.04297 30.1781 4.04297ZM30.1781 14.1308L26.353 14.1191V7.19653H30.1787C32.4938 7.19653 34.3804 8.7655 34.3804 10.701C34.3798 12.5981 32.4933 14.1431 30.1781 14.1308Z" fill="black"/>
<path d="M80.414 24.2806H68.1776V4.04248C68.5958 4.04248 69.01 4.12465 69.3964 4.28428C69.7828 4.44392 70.1339 4.6779 70.4296 4.97287C70.7253 5.26784 70.9599 5.61801 71.1199 6.00339C71.2799 6.38877 71.3622 6.80181 71.3621 7.21892V21.5957H77.2412C78.9935 21.5957 80.414 22.5331 80.414 24.2806Z" fill="black"/>
<path d="M59.1465 9.12427C56.2216 9.12427 53.677 10.7596 52.3662 13.1689C51.0553 10.7596 48.5102 9.12427 45.5853 9.12427C41.3215 9.12427 37.8644 12.5992 37.8644 16.8837C37.8644 21.1683 41.3226 24.6438 45.5853 24.6438C48.5102 24.6438 51.0553 23.0084 52.3662 20.5992C53.677 23.0084 56.2216 24.6438 59.1465 24.6438C63.4109 24.6438 66.8674 21.1688 66.8674 16.8837C66.8674 12.5987 63.4109 9.12427 59.1465 9.12427ZM45.5853 22.7529C42.361 22.7529 39.7465 20.1255 39.7465 16.8854C39.7465 13.6454 42.361 11.0185 45.5853 11.0185C48.8095 11.0185 51.424 13.6454 51.424 16.8854C51.424 20.1255 48.8101 22.7529 45.5853 22.7529ZM59.1465 22.7529C55.9222 22.7529 53.3078 20.1255 53.3078 16.8854C53.3078 13.6454 55.9222 11.0185 59.1465 11.0185C62.3708 11.0185 64.9853 13.6454 64.9853 16.8854C64.9853 20.1255 62.3708 22.7529 59.1465 22.7529Z" fill="black"/>
<path d="M59.773 18.1972C58.6186 18.1981 57.4889 17.8632 56.5224 17.2336C57.7493 18.4182 58.5063 18.6369 59.7271 18.6369C60.9479 18.6369 62.1441 18.1989 63.023 17.2336C62.0567 17.8632 60.9272 18.1981 59.773 18.1972Z" fill="#002BB5"/>
<path d="M45.6349 17.4428C48.1823 17.4428 50.2473 16.0012 50.2473 14.2229C50.2473 12.4446 48.1823 11.0029 45.6349 11.0029C43.0876 11.0029 41.0226 12.4446 41.0226 14.2229C41.0226 16.0012 43.0876 17.4428 45.6349 17.4428Z" fill="url(#paint17_linear_0_178)"/>
<path d="M59.1963 17.4428C61.7436 17.4428 63.8086 16.0012 63.8086 14.2229C63.8086 12.4446 61.7436 11.0029 59.1963 11.0029C56.6489 11.0029 54.5839 12.4446 54.5839 14.2229C54.5839 16.0012 56.6489 17.4428 59.1963 17.4428Z" fill="url(#paint18_linear_0_178)"/>
<path d="M46.5889 11.6494L46.4043 12.7536C46.4043 12.7536 43.3613 12.199 41.3303 14.774C41.3303 14.774 42.5299 11.7387 46.5889 11.6494Z" fill="url(#paint19_linear_0_178)"/>
<path d="M59.227 11.7388L59.4116 12.843C59.4116 12.843 62.4557 12.2911 64.485 14.8667C64.485 14.8667 63.286 11.8308 59.227 11.7388Z" fill="url(#paint20_linear_0_178)"/>
<path opacity="0.5" d="M8.7495 15.2985L8.8088 15.2684C8.84797 15.2494 8.90671 15.2227 8.98168 15.1875C9.13274 15.1178 9.3543 15.0235 9.63516 14.9247C10.3695 14.6694 11.1347 14.5127 11.9106 14.4588C12.3374 14.4323 12.7655 14.4323 13.1923 14.4588C13.3887 14.4761 13.5756 14.4856 13.7518 14.5107C13.9281 14.5358 14.0875 14.5514 14.2335 14.5793L14.4428 14.6151C14.5088 14.6257 14.5709 14.6374 14.6285 14.6508L14.9239 14.7155C15.0056 14.7322 15.0683 14.7478 15.1102 14.7596L15.1746 14.7769L15.1091 14.764C15.0666 14.7545 15.0034 14.7434 14.9211 14.7311L14.6229 14.6826C14.567 14.672 14.5026 14.6636 14.4361 14.6558L14.2263 14.6296C14.0797 14.6078 13.918 14.5955 13.7445 14.5799C13.5711 14.5643 13.3854 14.557 13.1907 14.5442C12.7673 14.5288 12.3434 14.5347 11.9206 14.562C11.1519 14.6149 10.3915 14.7534 9.65362 14.9749C9.37052 15.0614 9.14505 15.1423 8.99063 15.2043L8.81328 15.2746L8.7495 15.2985Z" fill="white"/>
<path d="M13.7009 14.5382H13.6645C13.641 14.5382 13.6086 14.532 13.5604 14.5309L13.1778 14.5147C12.8544 14.5092 12.4073 14.5036 11.9161 14.5393C11.4962 14.5688 11.0782 14.6211 10.664 14.6961C10.5846 14.7106 10.5124 14.7229 10.4497 14.7357L10.2886 14.7703L10.151 14.7999L10.2864 14.7619L10.4458 14.7184C10.5079 14.7028 10.5795 14.6872 10.6584 14.6687C11.0711 14.5761 11.4902 14.5143 11.9122 14.4841C12.334 14.457 12.7572 14.4582 13.1789 14.4874L13.561 14.5226C13.6063 14.5265 13.641 14.5326 13.6645 14.5354L13.7009 14.5382Z" fill="white"/>
<path d="M5.82 31.2017H2.64V32.8217H5.76V34.6697H2.64V37.7537H0.72V29.3537H5.82V31.2017ZM6.89438 37.7537V28.9937H8.69438V37.7537H6.89438ZM12.8916 37.9217C11.1276 37.9217 9.71156 36.5417 9.71156 34.7537C9.71156 32.9657 11.1276 31.5857 12.8916 31.5857C14.6556 31.5857 16.0716 32.9657 16.0716 34.7537C16.0716 36.5417 14.6556 37.9217 12.8916 37.9217ZM12.8916 36.1697C13.6716 36.1697 14.2716 35.6057 14.2716 34.7537C14.2716 33.9017 13.6716 33.3377 12.8916 33.3377C12.1116 33.3377 11.5116 33.9017 11.5116 34.7537C11.5116 35.6057 12.1116 36.1697 12.8916 36.1697ZM21.4457 31.7537H23.2457V37.7537H21.4457V37.1897C21.0497 37.6457 20.4617 37.9217 19.6577 37.9217C18.0857 37.9217 16.7897 36.5417 16.7897 34.7537C16.7897 32.9657 18.0857 31.5857 19.6577 31.5857C20.4617 31.5857 21.0497 31.8617 21.4457 32.3177V31.7537ZM20.0177 36.2177C20.8457 36.2177 21.4457 35.6537 21.4457 34.7537C21.4457 33.8537 20.8457 33.2897 20.0177 33.2897C19.1897 33.2897 18.5897 33.8537 18.5897 34.7537C18.5897 35.6537 19.1897 36.2177 20.0177 36.2177ZM28.0823 33.4817H26.8463V35.6057C26.8463 36.1217 27.2903 36.1697 28.0823 36.1217V37.7537C25.7303 37.9937 25.0463 37.2857 25.0463 35.6057V33.4817H24.0863V31.7537H25.0463V30.6137L26.8463 30.0737V31.7537H28.0823V33.4817ZM34.1986 35.9057H37.1986V37.7537H32.2786V29.3537H34.1986V35.9057ZM40.8056 37.9217C39.0416 37.9217 37.6256 36.5417 37.6256 34.7537C37.6256 32.9657 39.0416 31.5857 40.8056 31.5857C42.5696 31.5857 43.9856 32.9657 43.9856 34.7537C43.9856 36.5417 42.5696 37.9217 40.8056 37.9217ZM40.8056 36.1697C41.5856 36.1697 42.1856 35.6057 42.1856 34.7537C42.1856 33.9017 41.5856 33.3377 40.8056 33.3377C40.0256 33.3377 39.4256 33.9017 39.4256 34.7537C39.4256 35.6057 40.0256 36.1697 40.8056 36.1697ZM48.8798 31.7537H50.6797V37.7537H48.8798V37.1897C48.5558 37.6337 47.9558 37.9217 47.1638 37.9217C45.9518 37.9217 44.9198 37.0577 44.9198 35.4377V31.7537H46.7198V35.1737C46.7198 35.9177 47.1878 36.2657 47.7638 36.2657C48.4238 36.2657 48.8798 35.8817 48.8798 35.0297V31.7537ZM55.5158 31.5857C56.7278 31.5857 57.7598 32.4497 57.7598 34.0697V37.7537H55.9598V34.3337C55.9598 33.5897 55.4918 33.2417 54.9158 33.2417C54.2558 33.2417 53.7998 33.6257 53.7998 34.4777V37.7537H51.9998V31.7537H53.7998V32.3177C54.1238 31.8737 54.7238 31.5857 55.5158 31.5857ZM63.3999 31.7537H65.1519V37.4537C65.1519 39.4697 63.5799 40.3217 61.9839 40.3217C60.7359 40.3217 59.6919 39.8537 59.1399 38.8697L60.6759 37.9817C60.9039 38.4017 61.2519 38.7377 62.0439 38.7377C62.8839 38.7377 63.3999 38.3057 63.3999 37.4537V36.9017C63.0039 37.3937 62.4279 37.6817 61.6479 37.6817C59.9439 37.6817 58.6959 36.2897 58.6959 34.6337C58.6959 32.9777 59.9439 31.5857 61.6479 31.5857C62.4279 31.5857 63.0039 31.8737 63.3999 32.3657V31.7537ZM61.9479 36.0257C62.7999 36.0257 63.3999 35.4617 63.3999 34.6337C63.3999 33.8057 62.7999 33.2417 61.9479 33.2417C61.0959 33.2417 60.4959 33.8057 60.4959 34.6337C60.4959 35.4617 61.0959 36.0257 61.9479 36.0257ZM68.0805 35.4737C68.3085 36.0977 68.8605 36.3137 69.5205 36.3137C70.0125 36.3137 70.4325 36.1217 70.6725 35.8577L72.1125 36.6857C71.5245 37.5017 70.6365 37.9217 69.4965 37.9217C67.4445 37.9217 66.1725 36.5417 66.1725 34.7537C66.1725 32.9657 67.4685 31.5857 69.3645 31.5857C71.1165 31.5857 72.4125 32.9417 72.4125 34.7537C72.4125 35.0057 72.3885 35.2457 72.3405 35.4737H68.0805ZM68.0445 34.1297H70.6245C70.4325 33.4337 69.8925 33.1817 69.3525 33.1817C68.6685 33.1817 68.2125 33.5177 68.0445 34.1297ZM75.2334 32.8217C75.4734 32.0177 76.2774 31.6337 77.0334 31.6337V33.6737C76.2894 33.5537 75.2334 33.8537 75.2334 35.0417V37.7537H73.4334V31.7537H75.2334V32.8217Z" fill="#001484"/>
<defs>
<linearGradient id="paint0_linear_0_178" x1="12.6155" y1="-7.04633" x2="11.6979" y2="10.188" gradientUnits="userSpaceOnUse">
<stop stop-color="#00D3D8"/>
<stop offset="0.16" stop-color="#00ADCF"/>
<stop offset="0.45" stop-color="#006FC0"/>
<stop offset="0.7" stop-color="#0041B4"/>
<stop offset="0.89" stop-color="#0025AE"/>
<stop offset="1" stop-color="#001AAB"/>
</linearGradient>
<radialGradient id="paint1_radial_0_178" cx="0" cy="0" r="1" gradientTransform="matrix(-0.0783858 -4.348 6.97583 -0.125075 12.3273 18.4837)" gradientUnits="userSpaceOnUse">
<stop stop-color="#00D3D8"/>
<stop offset="0.16" stop-color="#00CED7"/>
<stop offset="0.35" stop-color="#00BFD2"/>
<stop offset="0.56" stop-color="#00A8CC"/>
<stop offset="0.6" stop-color="#00A2CA"/>
<stop offset="0.65" stop-color="#0095C6"/>
<stop offset="0.76" stop-color="#0072BC"/>
<stop offset="0.9" stop-color="#003BAC"/>
<stop offset="1" stop-color="#000C9F"/>
</radialGradient>
<linearGradient id="paint2_linear_0_178" x1="6.99383" y1="0.930663" x2="6.03063" y2="20.2044" gradientUnits="userSpaceOnUse">
<stop stop-color="#00D3D8"/>
<stop offset="0.05" stop-color="#00BCD2"/>
<stop offset="0.16" stop-color="#0091C8"/>
<stop offset="0.28" stop-color="#006CBF"/>
<stop offset="0.4" stop-color="#004EB8"/>
<stop offset="0.52" stop-color="#0037B2"/>
<stop offset="0.66" stop-color="#0027AE"/>
<stop offset="0.81" stop-color="#001DAC"/>
<stop offset="1" stop-color="#001AAB"/>
</linearGradient>
<linearGradient id="paint3_linear_0_178" x1="-3.05839" y1="13.652" x2="7.70439" y2="15.78" gradientUnits="userSpaceOnUse">
<stop offset="0.3" stop-color="white" stop-opacity="0"/>
<stop offset="0.36" stop-color="white" stop-opacity="0.1"/>
<stop offset="0.54" stop-color="white" stop-opacity="0.42"/>
<stop offset="0.7" stop-color="white" stop-opacity="0.67"/>
<stop offset="0.84" stop-color="white" stop-opacity="0.85"/>
<stop offset="0.94" stop-color="white" stop-opacity="0.96"/>
<stop offset="1" stop-color="white"/>
</linearGradient>
<linearGradient id="paint4_linear_0_178" x1="3.67671" y1="20.7408" x2="4.68012" y2="21.1718" gradientUnits="userSpaceOnUse">
<stop/>
<stop offset="0.11" stop-color="#000418"/>
<stop offset="0.42" stop-color="#000D56"/>
<stop offset="0.68" stop-color="#001484"/>
<stop offset="0.88" stop-color="#0018A0"/>
<stop offset="1" stop-color="#001AAB"/>
</linearGradient>
<linearGradient id="paint5_linear_0_178" x1="6.82149" y1="21.8092" x2="7.92854" y2="21.9943" gradientUnits="userSpaceOnUse">
<stop/>
<stop offset="0.11" stop-color="#000418"/>
<stop offset="0.42" stop-color="#000D56"/>
<stop offset="0.68" stop-color="#001484"/>
<stop offset="0.88" stop-color="#0018A0"/>
<stop offset="1" stop-color="#001AAB"/>
</linearGradient>
<linearGradient id="paint6_linear_0_178" x1="10.7026" y1="22.4454" x2="11.6996" y2="22.4084" gradientUnits="userSpaceOnUse">
<stop/>
<stop offset="0.11" stop-color="#000418"/>
<stop offset="0.42" stop-color="#000D56"/>
<stop offset="0.68" stop-color="#001484"/>
<stop offset="0.88" stop-color="#0018A0"/>
<stop offset="1" stop-color="#001AAB"/>
</linearGradient>
<linearGradient id="paint7_linear_0_178" x1="14.5378" y1="22.0727" x2="15.4595" y2="21.7951" gradientUnits="userSpaceOnUse">
<stop/>
<stop offset="0.11" stop-color="#000418"/>
<stop offset="0.42" stop-color="#000D56"/>
<stop offset="0.68" stop-color="#001484"/>
<stop offset="0.88" stop-color="#0018A0"/>
<stop offset="1" stop-color="#001AAB"/>
</linearGradient>
<linearGradient id="paint8_linear_0_178" x1="16.3814" y1="21.7395" x2="18.0085" y2="20.6926" gradientUnits="userSpaceOnUse">
<stop/>
<stop offset="0.11" stop-color="#000418"/>
<stop offset="0.42" stop-color="#000D56"/>
<stop offset="0.68" stop-color="#001484"/>
<stop offset="0.88" stop-color="#0018A0"/>
<stop offset="1" stop-color="#001AAB"/>
</linearGradient>
<linearGradient id="paint9_linear_0_178" x1="17.8096" y1="21.1269" x2="19.0986" y2="20.0499" gradientUnits="userSpaceOnUse">
<stop/>
<stop offset="0.11" stop-color="#000418"/>
<stop offset="0.42" stop-color="#000D56"/>
<stop offset="0.68" stop-color="#001484"/>
<stop offset="0.88" stop-color="#0018A0"/>
<stop offset="1" stop-color="#001AAB"/>
</linearGradient>
<linearGradient id="paint10_linear_0_178" x1="18.0653" y1="20.7425" x2="19.3245" y2="20.1266" gradientUnits="userSpaceOnUse">
<stop/>
<stop offset="0.11" stop-color="#000418"/>
<stop offset="0.42" stop-color="#000D56"/>
<stop offset="0.68" stop-color="#001484"/>
<stop offset="0.88" stop-color="#0018A0"/>
<stop offset="1" stop-color="#001AAB"/>
</linearGradient>
<linearGradient id="paint11_linear_0_178" x1="7.65959" y1="4.09211" x2="9.95561" y2="-1.43219" gradientUnits="userSpaceOnUse">
<stop offset="0.3" stop-color="white" stop-opacity="0"/>
<stop offset="0.36" stop-color="white" stop-opacity="0.1"/>
<stop offset="0.54" stop-color="white" stop-opacity="0.42"/>
<stop offset="0.7" stop-color="white" stop-opacity="0.67"/>
<stop offset="0.84" stop-color="white" stop-opacity="0.85"/>
<stop offset="0.94" stop-color="white" stop-opacity="0.96"/>
<stop offset="1" stop-color="white"/>
</linearGradient>
<linearGradient id="paint12_linear_0_178" x1="18.1667" y1="16.0697" x2="24.5725" y2="13.2049" gradientUnits="userSpaceOnUse">
<stop stop-color="white" stop-opacity="0"/>
<stop offset="1" stop-color="white"/>
</linearGradient>
<linearGradient id="paint13_linear_0_178" x1="2.57889" y1="10.9721" x2="6.85332" y2="10.8795" gradientUnits="userSpaceOnUse">
<stop stop-color="white" stop-opacity="0"/>
<stop offset="1" stop-color="white"/>
</linearGradient>
<linearGradient id="paint14_linear_0_178" x1="4.63666" y1="3.75211" x2="4.39182" y2="0.80042" gradientUnits="userSpaceOnUse">
<stop offset="0.12" stop-color="white" stop-opacity="0"/>
<stop offset="0.44" stop-color="white"/>
</linearGradient>
<linearGradient id="paint15_linear_0_178" x1="45.6982" y1="13.8552" x2="45.6982" y2="53.5062" gradientUnits="userSpaceOnUse">
<stop stop-color="#00D3D8"/>
<stop offset="0.05" stop-color="#00BCD2"/>
<stop offset="0.16" stop-color="#0091C8"/>
<stop offset="0.28" stop-color="#006CBF"/>
<stop offset="0.4" stop-color="#004EB8"/>
<stop offset="0.52" stop-color="#0037B2"/>
<stop offset="0.66" stop-color="#0027AE"/>
<stop offset="0.81" stop-color="#001DAC"/>
<stop offset="1" stop-color="#001AAB"/>
</linearGradient>
<linearGradient id="paint16_linear_0_178" x1="59.0698" y1="13.9473" x2="59.0698" y2="53.5983" gradientUnits="userSpaceOnUse">
<stop stop-color="#00D3D8"/>
<stop offset="0.05" stop-color="#00BCD2"/>
<stop offset="0.16" stop-color="#0091C8"/>
<stop offset="0.28" stop-color="#006CBF"/>
<stop offset="0.4" stop-color="#004EB8"/>
<stop offset="0.52" stop-color="#0037B2"/>
<stop offset="0.66" stop-color="#0027AE"/>
<stop offset="0.81" stop-color="#001DAC"/>
<stop offset="1" stop-color="#001AAB"/>
</linearGradient>
<linearGradient id="paint17_linear_0_178" x1="46.4596" y1="18.59" x2="44.3615" y2="7.41375" gradientUnits="userSpaceOnUse">
<stop stop-color="white" stop-opacity="0"/>
<stop offset="0.21" stop-color="white" stop-opacity="0.01"/>
<stop offset="0.35" stop-color="white" stop-opacity="0.04"/>
<stop offset="0.46" stop-color="white" stop-opacity="0.1"/>
<stop offset="0.56" stop-color="white" stop-opacity="0.18"/>
<stop offset="0.66" stop-color="white" stop-opacity="0.29"/>
<stop offset="0.75" stop-color="white" stop-opacity="0.42"/>
<stop offset="0.83" stop-color="white" stop-opacity="0.57"/>
<stop offset="0.91" stop-color="white" stop-opacity="0.75"/>
<stop offset="0.98" stop-color="white" stop-opacity="0.95"/>
<stop offset="1" stop-color="white"/>
</linearGradient>
<linearGradient id="paint18_linear_0_178" x1="60.0209" y1="18.59" x2="57.9223" y2="7.41375" gradientUnits="userSpaceOnUse">
<stop stop-color="white" stop-opacity="0"/>
<stop offset="0.21" stop-color="white" stop-opacity="0.01"/>
<stop offset="0.35" stop-color="white" stop-opacity="0.04"/>
<stop offset="0.46" stop-color="white" stop-opacity="0.1"/>
<stop offset="0.56" stop-color="white" stop-opacity="0.18"/>
<stop offset="0.66" stop-color="white" stop-opacity="0.29"/>
<stop offset="0.75" stop-color="white" stop-opacity="0.42"/>
<stop offset="0.83" stop-color="white" stop-opacity="0.57"/>
<stop offset="0.91" stop-color="white" stop-opacity="0.75"/>
<stop offset="0.98" stop-color="white" stop-opacity="0.95"/>
<stop offset="1" stop-color="white"/>
</linearGradient>
<linearGradient id="paint19_linear_0_178" x1="42.9573" y1="10.0129" x2="44.7933" y2="15.9033" gradientUnits="userSpaceOnUse">
<stop offset="0.3" stop-color="white" stop-opacity="0"/>
<stop offset="0.36" stop-color="white" stop-opacity="0.1"/>
<stop offset="0.54" stop-color="white" stop-opacity="0.42"/>
<stop offset="0.7" stop-color="white" stop-opacity="0.67"/>
<stop offset="0.84" stop-color="white" stop-opacity="0.85"/>
<stop offset="0.94" stop-color="white" stop-opacity="0.96"/>
<stop offset="1" stop-color="white"/>
</linearGradient>
<linearGradient id="paint20_linear_0_178" x1="62.858" y1="10.1051" x2="61.022" y2="15.9955" gradientUnits="userSpaceOnUse">
<stop offset="0.3" stop-color="white" stop-opacity="0"/>
<stop offset="0.36" stop-color="white" stop-opacity="0.1"/>
<stop offset="0.54" stop-color="white" stop-opacity="0.42"/>
<stop offset="0.7" stop-color="white" stop-opacity="0.67"/>
<stop offset="0.84" stop-color="white" stop-opacity="0.85"/>
<stop offset="0.94" stop-color="white" stop-opacity="0.96"/>
<stop offset="1" stop-color="white"/>
</linearGradient>
</defs>
</svg>
