<svg width="51" height="22" viewBox="0 0 51 22" fill="none" xmlns="http://www.w3.org/2000/svg">
<g clip-path="url(#clip0_0_128)">
<path d="M43.8539 17.2407L39.8723 20.3205L49.3572 21.7417L47.7784 14.2195L50.9983 7.1711L45.4067 6.40137L43.8539 17.2407Z" fill="#0056BD"/>
<path d="M0 7.17027L3.22423 14.2187L1.64457 21.7418L11.1294 20.3205L7.14784 17.2407L5.59502 6.39966L0 7.17027Z" fill="#0056BD"/>
<path d="M24.5397 17.8712L22.3463 18.2346L23.9684 19.7749L23.6325 22.0001L25.5801 20.9142L27.5709 21.9248L27.1502 19.7154L28.7082 18.1155L26.5028 17.8353L25.4866 15.8352L24.5397 17.8712Z" fill="#EE7A5D"/>
<path d="M33.2195 18.3545L32.0346 18.5516L32.9105 19.3826L32.7288 20.5849L33.7804 19.9982L34.8537 20.5429L34.6269 19.3502L35.4717 18.485L34.2816 18.3327L33.7294 17.2529L33.2195 18.3545Z" fill="#EE7A5D"/>
<path d="M16.8552 18.3545L15.6702 18.5515L16.5444 19.3826L16.3626 20.5849L17.4143 19.9982L18.4876 20.5429L18.2634 19.3502L19.1056 18.4867L17.9129 18.3344L17.3615 17.2546L16.8552 18.3545Z" fill="#EE7A5D"/>
<path d="M25.3438 8.04584H26.1712L25.7696 5.24976L25.3438 8.04584Z" fill="#0056BD"/>
<path d="M18.1898 8.3059L19.0173 8.24898L18.4114 5.48267L18.1898 8.3059Z" fill="#0056BD"/>
<mask id="mask0_0_128" style="mask-type:luminance" maskUnits="userSpaceOnUse" x="0" y="0" width="51" height="22">
<path d="M51 0H0V21.9991H51V0Z" fill="white"/>
</mask>
<g mask="url(#mask0_0_128)">
<path d="M5.56213 2.03604L8.02121 16.1907C19.5821 13.8037 31.4998 13.7984 43.0628 16.175L45.405 2.03604C32.6708 -0.708373 17.4472 -0.648826 5.56213 2.03604ZM11.9007 10.8464C11.7251 10.8879 11.5426 10.8888 11.3667 10.849C11.1907 10.8092 11.0259 10.7299 10.8845 10.6167C10.7431 10.5036 10.6287 10.3597 10.5499 10.1957C10.4711 10.0317 10.4298 9.85182 10.4292 9.66945L9.9921 6.83046C9.93665 6.65577 9.92121 6.47061 9.94696 6.28899C9.97271 6.10737 10.039 5.93407 10.1407 5.78219C10.2425 5.63031 10.377 5.50385 10.5342 5.41237C10.6914 5.3209 10.8672 5.26681 11.0481 5.25421C11.2236 5.21154 11.4064 5.20972 11.5827 5.2489C11.759 5.28807 11.9242 5.36721 12.0658 5.48036C12.2075 5.59351 12.322 5.73771 12.4006 5.9021C12.4791 6.06649 12.5198 6.24678 12.5196 6.42939L12.6018 6.96093L11.7994 7.08528L11.7128 6.49857C11.654 6.10976 11.461 5.98892 11.1935 6.03095C10.926 6.07298 10.7754 6.24637 10.836 6.63868L11.2853 9.58626C11.3458 9.97682 11.5371 10.0915 11.8046 10.0486C12.0721 10.0057 12.2244 9.83933 12.1638 9.45053L12.0106 8.44698L11.622 8.50653L11.5051 7.72892L12.6918 7.54152L12.9575 9.27539C13.0117 9.4498 13.0261 9.63435 12.9998 9.81521C12.9734 9.99607 12.907 10.1686 12.8054 10.3198C12.7038 10.471 12.5697 10.5969 12.4132 10.6883C12.2567 10.7796 12.0818 10.834 11.9015 10.8473M15.2772 10.4147C15.0997 10.4485 14.9168 10.4413 14.7423 10.3936C14.5679 10.3458 14.4064 10.2587 14.2699 10.1389C14.1334 10.019 14.0256 9.86943 13.9543 9.7014C13.8831 9.53336 13.8504 9.3512 13.8586 9.16855L13.4119 4.97662L14.2689 4.88379L14.7181 9.12915C14.7614 9.52408 14.9466 9.64668 15.2192 9.61691C15.4919 9.58713 15.6468 9.42776 15.6036 9.03457L15.1543 4.78747L15.9619 4.6999L16.4051 8.89183C16.4517 9.06872 16.458 9.25397 16.4238 9.43371C16.3895 9.61345 16.3155 9.78302 16.2072 9.92969C16.099 10.0764 15.9593 10.1963 15.7987 10.2806C15.6381 10.3649 15.4607 10.4113 15.2798 10.4164M19.4034 9.9882L19.1844 8.99517L18.1327 9.06785L18.0505 10.081L17.2637 10.1362L17.7631 4.55016L19.0182 4.46259L20.2672 9.92953L19.4034 9.9882ZM22.7955 9.84196C22.7182 9.62529 22.6849 9.39505 22.6977 9.16505L22.67 8.29811C22.6562 7.78496 22.4788 7.59756 22.0884 7.61332L21.7915 7.61858L21.8599 9.8656L21.003 9.89363L20.835 4.36714L22.1334 4.32948C22.3042 4.29509 22.4807 4.30234 22.6482 4.35061C22.8158 4.39889 22.9695 4.48682 23.0968 4.60712C23.2241 4.72743 23.3213 4.87666 23.3802 5.04247C23.4392 5.20829 23.4584 5.38593 23.4361 5.5607L23.4499 5.99855C23.4873 6.22024 23.4566 6.44818 23.362 6.6517C23.2675 6.85523 23.1136 7.02457 22.9211 7.13695C23.3538 7.30508 23.5088 7.71928 23.5269 8.29636L23.5521 9.14754C23.542 9.37562 23.5807 9.60321 23.6654 9.81481L22.7955 9.84196ZM26.4309 9.80606L26.2864 8.80339H25.2321L25.0806 9.79993H24.2904L25.1836 4.27344L26.4422 4.27957L27.2948 9.80781L26.4309 9.80606ZM30.7008 9.93478L29.8187 9.89538L28.8995 5.85231L28.7489 9.85685L27.976 9.82532L28.1846 4.29883L29.2596 4.34262L30.0144 7.68338L30.1451 4.37852L30.9085 4.40829L30.7008 9.93478ZM34.4573 5.46876L33.5632 5.39257L33.2057 10.1117L32.3505 10.0425L32.708 5.32777L31.8139 5.25421L31.8727 4.46609L34.5153 4.67625L34.4573 5.46876ZM37.6772 5.80064L36.2058 5.63514L36.0326 7.1676L37.2072 7.30158L37.1207 8.0897L35.9461 7.95747L35.7686 9.56874L37.2462 9.73425L37.1596 10.5224L34.8278 10.2597L35.4337 4.75507L37.7707 5.01777L37.6772 5.80064ZM41.001 6.29628L39.5356 6.06598L39.3088 7.58618L40.4721 7.76132L40.357 8.54331L39.192 8.36817L38.9539 9.96718L40.4193 10.1905L40.3042 10.9707L37.9897 10.6205L38.8016 5.16139L41.1178 5.51166L41.001 6.29628Z" fill="#0056BD"/>
<path d="M22.1299 5.1177L21.7162 5.13171L21.7673 6.82792L22.1031 6.81829C22.4234 6.80866 22.6146 6.66066 22.6008 6.22019L22.5835 5.67288C22.574 5.27795 22.4355 5.10981 22.1308 5.1177" fill="#0056BD"/>
</g>
</g>
<defs>
<clipPath id="clip0_0_128">
<rect width="51" height="22" fill="white"/>
</clipPath>
</defs>
</svg>
