<svg width="90" height="16" viewBox="0 0 90 16" fill="none" xmlns="http://www.w3.org/2000/svg">
<path d="M8.65558 2.0826L10.1427 5.06424C10.25 5.28114 10.4592 5.43208 10.7019 5.46763L14.0331 5.95288C14.2289 5.98035 14.4056 6.08339 14.5239 6.23919C14.6422 6.395 14.6925 6.59072 14.6636 6.78306C14.6406 6.94249 14.5654 7.09022 14.4495 7.204L12.0344 9.54254C11.8575 9.70787 11.777 9.94952 11.8202 10.1856L12.4151 13.4771C12.4808 13.8709 12.2181 14.2453 11.8202 14.3249C11.6574 14.3504 11.4905 14.3238 11.3443 14.2489L8.37005 12.6996C8.14978 12.5882 7.88838 12.5882 7.66812 12.6996L4.69383 14.2489C4.32746 14.4437 3.86976 14.3103 3.67067 13.9507C3.59524 13.8067 3.56817 13.643 3.59334 13.483L4.1882 10.1915C4.23141 9.95537 4.15094 9.71372 3.97405 9.54839L1.55893 7.20985C1.41724 7.07252 1.33748 6.8851 1.33748 6.68952C1.33748 6.49395 1.41724 6.30653 1.55893 6.1692C1.67307 6.05306 1.8242 5.97879 1.98723 5.95873L5.31843 5.47348C5.56113 5.43793 5.77035 5.28699 5.8776 5.07008L7.3112 2.0826C7.43657 1.82776 7.70139 1.66795 7.98934 1.67335H8.07857C8.32915 1.70459 8.54645 1.85872 8.65558 2.0826Z" fill="#FFB800"/>
<path d="M8.00692 12.6118C7.87664 12.6109 7.75412 12.6538 7.63821 12.7123L4.67331 14.2578C4.31771 14.437 3.86617 14.293 3.67041 13.9506C3.59464 13.8089 3.56751 13.6469 3.59308 13.4887L4.18794 10.2031C4.22788 9.96544 4.14805 9.72352 3.97379 9.55415L1.55272 7.2156C1.26077 6.92806 1.26077 6.4625 1.55272 6.17495C1.66691 6.06212 1.81497 5.98834 1.97507 5.96448L5.31817 5.47339C5.57579 5.436 5.75992 5.29356 5.87733 5.06999L7.32964 2.04826C7.44032 1.80245 7.81242 1.63258 8.01287 1.67326C8.00692 1.87203 8.00692 12.4773 8.00692 12.6118Z" fill="#F2AE00"/>
<path d="M27.0615 2.0826L28.5486 5.06424C28.6559 5.28114 28.8651 5.43208 29.1078 5.46763L32.439 5.95288C32.6348 5.98035 32.8115 6.08339 32.9298 6.23919C33.0481 6.395 33.0984 6.59072 33.0695 6.78306C33.0465 6.94249 32.9713 7.09022 32.8554 7.204L30.4403 9.54254C30.2634 9.70787 30.1829 9.94952 30.2261 10.1856L30.821 13.4771C30.8867 13.8709 30.624 14.2453 30.2261 14.3249C30.0633 14.3504 29.8964 14.3238 29.7502 14.2489L26.7759 12.6996C26.5557 12.5882 26.2943 12.5882 26.074 12.6996L23.0997 14.2489C22.7333 14.4437 22.2756 14.3103 22.0766 13.9507C22.0011 13.8067 21.9741 13.643 21.9992 13.483L22.5941 10.1915C22.6373 9.95537 22.5568 9.71372 22.3799 9.54839L19.9648 7.20985C19.8231 7.07252 19.7434 6.8851 19.7434 6.68952C19.7434 6.49395 19.8231 6.30653 19.9648 6.1692C20.079 6.05306 20.2301 5.97879 20.3931 5.95873L23.7243 5.47348C23.967 5.43793 24.1762 5.28699 24.2835 5.07008L25.7171 2.0826C25.8425 1.82776 26.1073 1.66795 26.3952 1.67335H26.4845C26.735 1.70459 26.9523 1.85872 27.0615 2.0826Z" fill="#FFB800"/>
<path d="M26.4128 12.6118C26.2825 12.6109 26.16 12.6538 26.0441 12.7123L23.0792 14.2578C22.7236 14.437 22.2721 14.293 22.0763 13.9506C22.0005 13.8089 21.9734 13.6469 21.999 13.4887L22.5938 10.2031C22.6338 9.96544 22.5539 9.72352 22.3797 9.55415L19.9586 7.2156C19.6667 6.92806 19.6667 6.4625 19.9586 6.17495C20.0728 6.06212 20.2209 5.98834 20.381 5.96448L23.724 5.47339C23.9817 5.436 24.1658 5.29356 24.2832 5.06999L25.7355 2.04826C25.8462 1.80245 26.2183 1.63258 26.4188 1.67326C26.4128 1.87203 26.4128 12.4773 26.4128 12.6118Z" fill="#F2AE00"/>
<path d="M45.4673 2.0826L46.9545 5.06424C47.0617 5.28114 47.271 5.43208 47.5137 5.46763L50.8449 5.95288C51.0407 5.98035 51.2173 6.08339 51.3357 6.23919C51.454 6.395 51.5043 6.59072 51.4754 6.78306C51.4524 6.94249 51.3772 7.09022 51.2613 7.204L48.8461 9.54254C48.6693 9.70787 48.5888 9.94952 48.632 10.1856L49.2268 13.4771C49.2925 13.8709 49.0298 14.2453 48.632 14.3249C48.4692 14.3504 48.3023 14.3238 48.1561 14.2489L45.1818 12.6996C44.9616 12.5882 44.7002 12.5882 44.4799 12.6996L41.5056 14.2489C41.1392 14.4437 40.6815 14.3103 40.4824 13.9507C40.407 13.8067 40.3799 13.643 40.4051 13.483L41 10.1915C41.0432 9.95537 40.9627 9.71372 40.7858 9.54839L38.3707 7.20985C38.229 7.07252 38.1492 6.8851 38.1492 6.68952C38.1492 6.49395 38.229 6.30653 38.3707 6.1692C38.4848 6.05306 38.636 5.97879 38.799 5.95873L42.1302 5.47348C42.3729 5.43793 42.5821 5.28699 42.6894 5.07008L44.123 2.0826C44.2483 1.82776 44.5132 1.66795 44.8011 1.67335H44.8903C45.1409 1.70459 45.3582 1.85872 45.4673 2.0826Z" fill="#FFB800"/>
<path d="M44.8187 12.6118C44.6884 12.6109 44.5659 12.6538 44.45 12.7123L41.4851 14.2578C41.1295 14.437 40.6779 14.293 40.4822 13.9506C40.4064 13.8089 40.3793 13.6469 40.4048 13.4887L40.9997 10.2031C41.0396 9.96544 40.9598 9.72352 40.7856 9.55415L38.3645 7.2156C38.0725 6.92806 38.0725 6.4625 38.3645 6.17495C38.4787 6.06212 38.6267 5.98834 38.7868 5.96448L42.1299 5.47339C42.3876 5.436 42.5717 5.29356 42.6891 5.06999L44.1414 2.04826C44.2521 1.80245 44.6242 1.63258 44.8246 1.67326C44.8187 1.87203 44.8187 12.4773 44.8187 12.6118Z" fill="#F2AE00"/>
<path d="M63.8731 2.0826L65.3602 5.06424C65.4675 5.28114 65.6767 5.43208 65.9194 5.46763L69.2506 5.95288C69.4464 5.98035 69.6231 6.08339 69.7414 6.23919C69.8597 6.395 69.91 6.59072 69.8811 6.78306C69.8581 6.94249 69.7829 7.09022 69.667 7.204L67.2519 9.54254C67.075 9.70787 66.9945 9.94952 67.0377 10.1856L67.6326 13.4771C67.6983 13.8709 67.4356 14.2453 67.0377 14.3249C66.8749 14.3504 66.708 14.3238 66.5618 14.2489L63.5875 12.6996C63.3673 12.5882 63.1059 12.5882 62.8856 12.6996L59.9113 14.2489C59.5449 14.4437 59.0872 14.3103 58.8882 13.9507C58.8127 13.8067 58.7857 13.643 58.8108 13.483L59.4057 10.1915C59.4489 9.95537 59.3684 9.71372 59.1915 9.54839L56.7764 7.20985C56.6347 7.07252 56.555 6.8851 56.555 6.68952C56.555 6.49395 56.6347 6.30653 56.7764 6.1692C56.8906 6.05306 57.0417 5.97879 57.2047 5.95873L60.5359 5.47348C60.7786 5.43793 60.9878 5.28699 61.0951 5.07008L62.5287 2.0826C62.6541 1.82776 62.9189 1.66795 63.2068 1.67335H63.2961C63.5466 1.70459 63.7639 1.85872 63.8731 2.0826Z" fill="#FFB800"/>
<path d="M63.2246 12.6118C63.0943 12.6109 62.9718 12.6538 62.8559 12.7123L59.891 14.2578C59.5354 14.437 59.0838 14.293 58.8881 13.9506C58.8123 13.8089 58.7852 13.6469 58.8107 13.4887L59.4056 10.2031C59.4455 9.96544 59.3657 9.72352 59.1915 9.55415L56.7704 7.2156C56.4784 6.92806 56.4784 6.4625 56.7704 6.17495C56.8846 6.06212 57.0326 5.98834 57.1927 5.96448L60.5358 5.47339C60.7935 5.436 60.9776 5.29356 61.095 5.06999L62.5473 2.04826C62.658 1.80245 63.0301 1.63258 63.2305 1.67326C63.2246 1.87203 63.2246 12.4773 63.2246 12.6118Z" fill="#F2AE00"/>
<path d="M81.6033 2.1731H81.6561C81.734 2.18793 81.7972 2.23638 81.8289 2.30103V2.302L81.8318 2.30591L83.3182 5.28638C83.4768 5.60669 83.7653 5.83838 84.1043 5.93091L84.2527 5.96216L87.5848 6.44751H87.5867C87.6533 6.45685 87.7113 6.49196 87.7488 6.54126C87.786 6.59022 87.8014 6.65035 87.7928 6.70825L87.7918 6.71118C87.7846 6.76124 87.761 6.80914 87.7225 6.84692L85.3094 9.18286C85.0144 9.46264 84.8781 9.87187 84.951 10.2737V10.2747L85.5447 13.5579V13.5588C85.5641 13.6752 85.4908 13.7969 85.3592 13.8303C85.3034 13.8377 85.2474 13.8287 85.1981 13.804L82.2244 12.2561L82.2186 12.2532C81.8566 12.0703 81.4282 12.0704 81.0662 12.2532L81.0604 12.2561L78.0858 13.8049L78.0818 13.8069C77.9552 13.8741 77.8032 13.8271 77.7361 13.7151C77.7116 13.6667 77.7015 13.6123 77.7098 13.5598L78.3035 10.2815C78.3772 9.87874 78.2401 9.46896 77.9442 9.18872H77.9451L75.5301 6.85083C75.4847 6.8068 75.4608 6.7485 75.4608 6.6897C75.4608 6.63091 75.4848 6.57263 75.5301 6.52856L75.5389 6.51978C75.5731 6.48499 75.6198 6.46171 75.6717 6.45532L75.6824 6.45337L79.0135 5.96802H79.0145C79.4169 5.90897 79.7679 5.6577 79.949 5.29126L79.952 5.28638L81.3836 2.30298C81.4219 2.2255 81.5059 2.17127 81.6033 2.1731Z" fill="white" stroke="#B3B3B3"/>
</svg>
