<svg width="90" height="16" viewBox="0 0 90 16" fill="none" xmlns="http://www.w3.org/2000/svg">
<path d="M8.65557 2.0826L10.1427 5.06424C10.25 5.28114 10.4592 5.43208 10.7019 5.46763L14.0331 5.95288C14.2289 5.98035 14.4056 6.08339 14.5239 6.23919C14.6422 6.395 14.6925 6.59072 14.6636 6.78306C14.6406 6.94249 14.5654 7.09022 14.4495 7.204L12.0344 9.54254C11.8575 9.70787 11.777 9.94952 11.8202 10.1856L12.4151 13.4771C12.4808 13.8709 12.2181 14.2453 11.8202 14.3249C11.6574 14.3504 11.4905 14.3238 11.3443 14.2489L8.37003 12.6996C8.14977 12.5882 7.88837 12.5882 7.6681 12.6996L4.69381 14.2489C4.32745 14.4437 3.86974 14.3103 3.67066 13.9507C3.59522 13.8067 3.56815 13.643 3.59333 13.483L4.18819 10.1915C4.23139 9.95537 4.15092 9.71372 3.97404 9.54839L1.55891 7.20985C1.41723 7.07252 1.33746 6.8851 1.33746 6.68952C1.33746 6.49395 1.41723 6.30653 1.55891 6.1692C1.67306 6.05306 1.82419 5.97879 1.98721 5.95873L5.31841 5.47348C5.56111 5.43793 5.77033 5.28699 5.87758 5.07008L7.31119 2.0826C7.43656 1.82776 7.70137 1.66795 7.98933 1.67335H8.07855C8.32913 1.70459 8.54644 1.85872 8.65557 2.0826Z" fill="#FFB800"/>
<path d="M8.00691 12.6117C7.87662 12.6109 7.75411 12.6538 7.63819 12.7122L4.6733 14.2577C4.3177 14.4369 3.86615 14.2929 3.6704 13.9505C3.59463 13.8088 3.5675 13.6468 3.59306 13.4887L4.18792 10.203C4.22787 9.96538 4.14803 9.72346 3.97377 9.55409L1.5527 7.21554C1.26075 6.928 1.26075 6.46244 1.5527 6.17489C1.6669 6.06206 1.81496 5.98828 1.97505 5.96442L5.31815 5.47333C5.57577 5.43594 5.7599 5.29349 5.87732 5.06993L7.32963 2.0482C7.4403 1.80239 7.8124 1.63252 8.01286 1.6732C8.00691 1.87197 8.00691 12.4773 8.00691 12.6117Z" fill="#F2AE00"/>
<path d="M27.0615 2.0826L28.5486 5.06424C28.6558 5.28114 28.8651 5.43208 29.1078 5.46763L32.439 5.95288C32.6348 5.98035 32.8114 6.08339 32.9298 6.23919C33.0481 6.395 33.0984 6.59072 33.0695 6.78306C33.0465 6.94249 32.9713 7.09022 32.8554 7.204L30.4402 9.54254C30.2634 9.70787 30.1829 9.94952 30.2261 10.1856L30.8209 13.4771C30.8866 13.8709 30.6239 14.2453 30.2261 14.3249C30.0633 14.3504 29.8964 14.3238 29.7502 14.2489L26.7759 12.6996C26.5557 12.5882 26.2943 12.5882 26.074 12.6996L23.0997 14.2489C22.7333 14.4437 22.2756 14.3103 22.0765 13.9507C22.0011 13.8067 21.974 13.643 21.9992 13.483L22.5941 10.1915C22.6373 9.95537 22.5568 9.71372 22.3799 9.54839L19.9648 7.20985C19.8231 7.07252 19.7433 6.8851 19.7433 6.68952C19.7433 6.49395 19.8231 6.30653 19.9648 6.1692C20.0789 6.05306 20.2301 5.97879 20.3931 5.95873L23.7243 5.47348C23.967 5.43793 24.1762 5.28699 24.2835 5.07008L25.7171 2.0826C25.8424 1.82776 26.1073 1.66795 26.3952 1.67335H26.4844C26.735 1.70459 26.9523 1.85872 27.0615 2.0826Z" fill="#FFB800"/>
<path d="M26.4128 12.6117C26.2825 12.6109 26.16 12.6538 26.0441 12.7122L23.0792 14.2577C22.7236 14.4369 22.272 14.2929 22.0763 13.9505C22.0005 13.8088 21.9734 13.6468 21.9989 13.4887L22.5938 10.203C22.6338 9.96538 22.5539 9.72346 22.3797 9.55409L19.9586 7.21554C19.6666 6.928 19.6666 6.46244 19.9586 6.17489C20.0728 6.06206 20.2208 5.98828 20.3809 5.96442L23.724 5.47333C23.9817 5.43594 24.1658 5.29349 24.2832 5.06993L25.7355 2.0482C25.8462 1.80239 26.2183 1.63252 26.4187 1.6732C26.4128 1.87197 26.4128 12.4773 26.4128 12.6117Z" fill="#F2AE00"/>
<path d="M45.4673 2.0826L46.9545 5.06424C47.0617 5.28114 47.2709 5.43208 47.5136 5.46763L50.8448 5.95288C51.0407 5.98035 51.2173 6.08339 51.3357 6.23919C51.454 6.395 51.5043 6.59072 51.4754 6.78306C51.4523 6.94249 51.3772 7.09022 51.2612 7.204L48.8461 9.54254C48.6692 9.70787 48.5888 9.94952 48.632 10.1856L49.2268 13.4771C49.2925 13.8709 49.0298 14.2453 48.632 14.3249C48.4692 14.3504 48.3023 14.3238 48.1561 14.2489L45.1818 12.6996C44.9615 12.5882 44.7001 12.5882 44.4799 12.6996L41.5056 14.2489C41.1392 14.4437 40.6815 14.3103 40.4824 13.9507C40.407 13.8067 40.3799 13.643 40.4051 13.483L41 10.1915C41.0432 9.95537 40.9627 9.71372 40.7858 9.54839L38.3707 7.20985C38.229 7.07252 38.1492 6.8851 38.1492 6.68952C38.1492 6.49395 38.229 6.30653 38.3707 6.1692C38.4848 6.05306 38.636 5.97879 38.799 5.95873L42.1302 5.47348C42.3729 5.43793 42.5821 5.28699 42.6893 5.07008L44.123 2.0826C44.2483 1.82776 44.5131 1.66795 44.8011 1.67335H44.8903C45.1409 1.70459 45.3582 1.85872 45.4673 2.0826Z" fill="#FFB800"/>
<path d="M44.8187 12.6117C44.6884 12.6109 44.5659 12.6538 44.45 12.7122L41.4851 14.2577C41.1295 14.4369 40.6779 14.2929 40.4822 13.9505C40.4064 13.8088 40.3793 13.6468 40.4048 13.4887L40.9997 10.203C41.0396 9.96538 40.9598 9.72346 40.7855 9.55409L38.3645 7.21554C38.0725 6.928 38.0725 6.46244 38.3645 6.17489C38.4787 6.06206 38.6267 5.98828 38.7868 5.96442L42.1299 5.47333C42.3875 5.43594 42.5717 5.29349 42.6891 5.06993L44.1414 2.0482C44.2521 1.80239 44.6242 1.63252 44.8246 1.6732C44.8187 1.87197 44.8187 12.4773 44.8187 12.6117Z" fill="#F2AE00"/>
<path d="M63.873 2.0826L65.3602 5.06424C65.4674 5.28114 65.6767 5.43208 65.9193 5.46763L69.2505 5.95288C69.4464 5.98035 69.623 6.08339 69.7414 6.23919C69.8597 6.395 69.91 6.59072 69.8811 6.78306C69.858 6.94249 69.7829 7.09022 69.6669 7.204L67.2518 9.54254C67.0749 9.70787 66.9945 9.94952 67.0377 10.1856L67.6325 13.4771C67.6982 13.8709 67.4355 14.2453 67.0377 14.3249C66.8749 14.3504 66.708 14.3238 66.5618 14.2489L63.5875 12.6996C63.3672 12.5882 63.1058 12.5882 62.8856 12.6996L59.9113 14.2489C59.5449 14.4437 59.0872 14.3103 58.8881 13.9507C58.8127 13.8067 58.7856 13.643 58.8108 13.483L59.4057 10.1915C59.4489 9.95537 59.3684 9.71372 59.1915 9.54839L56.7764 7.20985C56.6347 7.07252 56.5549 6.8851 56.5549 6.68952C56.5549 6.49395 56.6347 6.30653 56.7764 6.1692C56.8905 6.05306 57.0417 5.97879 57.2047 5.95873L60.5359 5.47348C60.7786 5.43793 60.9878 5.28699 61.095 5.07008L62.5287 2.0826C62.654 1.82776 62.9188 1.66795 63.2068 1.67335H63.296C63.5466 1.70459 63.7639 1.85872 63.873 2.0826Z" fill="#FFB800"/>
<path d="M63.2246 12.6117C63.0943 12.6109 62.9718 12.6538 62.8558 12.7122L59.8909 14.2577C59.5353 14.4369 59.0838 14.2929 58.888 13.9505C58.8123 13.8088 58.7852 13.6468 58.8107 13.4887L59.4056 10.203C59.4455 9.96538 59.3657 9.72346 59.1914 9.55409L56.7704 7.21554C56.4784 6.928 56.4784 6.46244 56.7704 6.17489C56.8845 6.06206 57.0326 5.98828 57.1927 5.96442L60.5358 5.47333C60.7934 5.43594 60.9776 5.29349 61.095 5.06993L62.5473 2.0482C62.658 1.80239 63.0301 1.63252 63.2305 1.6732C63.2246 1.87197 63.2246 12.4773 63.2246 12.6117Z" fill="#F2AE00"/>
<path d="M81.6033 2.1731H81.6561C81.734 2.18793 81.7972 2.23638 81.8289 2.30103V2.302L81.8318 2.30591L83.3182 5.28638C83.4768 5.60669 83.7653 5.83838 84.1043 5.93091L84.2527 5.96216L87.5848 6.44751H87.5867C87.6533 6.45685 87.7113 6.49196 87.7488 6.54126C87.786 6.59022 87.8014 6.65035 87.7928 6.70825L87.7918 6.71118C87.7846 6.76124 87.761 6.80914 87.7225 6.84692L85.3094 9.18286C85.0144 9.46264 84.8781 9.87187 84.951 10.2737V10.2747L85.5447 13.5579V13.5588C85.5641 13.6752 85.4908 13.7969 85.3592 13.8303C85.3034 13.8377 85.2474 13.8287 85.1981 13.804L82.2244 12.2561L82.2186 12.2532C81.8566 12.0703 81.4282 12.0704 81.0662 12.2532L81.0604 12.2561L78.0858 13.8049L78.0818 13.8069C77.9552 13.8741 77.8032 13.8271 77.7361 13.7151C77.7116 13.6667 77.7015 13.6123 77.7098 13.5598L78.3035 10.2815C78.3772 9.87874 78.2401 9.46896 77.9442 9.18872H77.9451L75.5301 6.85083C75.4847 6.8068 75.4608 6.7485 75.4608 6.6897C75.4608 6.63091 75.4848 6.57263 75.5301 6.52856L75.5389 6.51978C75.5731 6.48499 75.6198 6.46171 75.6717 6.45532L75.6824 6.45337L79.0135 5.96802H79.0145C79.4169 5.90897 79.7679 5.6577 79.949 5.29126L79.952 5.28638L81.3836 2.30298C81.4219 2.2255 81.5059 2.17127 81.6033 2.1731Z" fill="white" stroke="#B3B3B3"/>
</svg>
